<?xml version="1.0" encoding="utf-8"?>
<!-- Generator: Adobe Illustrator 18.1.1, SVG Export Plug-In . SVG Version: 6.00 Build 0)  -->
<!DOCTYPE svg PUBLIC "-//W3C//DTD SVG 1.1//EN" "http://www.w3.org/Graphics/SVG/1.1/DTD/svg11.dtd">
<svg version="1.1" id="Layer_1" xmlns="http://www.w3.org/2000/svg" xmlns:xlink="http://www.w3.org/1999/xlink" x="0px" y="0px"
	 viewBox="-94 -4 800 800" enable-background="new -94 -4 800 800" xml:space="preserve">
<polygon fill="#FFF" points="120.7,94.6 95.8,94.6 54.7,752.2 146.8,792 "/>
<path fill="#FFF" d="M515,129.5l-86.8-10.9V59.3l-31-39.5L263.1,0L232,29.6v64.5l-5.4-0.7V25.9l18.3-17.5l-9.3-1.4l-31,29.6v54L126.5,81
	l26.2,711l404.7-62.3L515,129.5z M393.8,62.2l-1-1.3l-125.5-18V53l104.9,15.1l0.9,43.7L263.1,98V36.2l135.2,19l1.3,59.9l-4.7-0.6
	L393.8,62.2z"/>
</svg>
