<?xml version="1.0" encoding="utf-8"?>
<!-- Generator: Adobe Illustrator 18.1.1, SVG Export Plug-In . SVG Version: 6.00 Build 0)  -->
<!DOCTYPE svg PUBLIC "-//W3C//DTD SVG 1.1//EN" "http://www.w3.org/Graphics/SVG/1.1/DTD/svg11.dtd">
<svg version="1.1" id="Layer_1" xmlns="http://www.w3.org/2000/svg" xmlns:xlink="http://www.w3.org/1999/xlink" x="0px" y="0px"
	 viewBox="0 0 507.5 507.5" enable-background="new 0 0 507.5 507.5" xml:space="preserve">
<rect x="-1" y="0" fill="#EC008C" width="508.5" height="507.5"/>
<g>
	<polygon fill="#FFFFFF" points="202.5,391.7 96.9,301.9 96.9,270 62.8,270 62.8,316.8 175.3,410.5 62.9,410.5 62.9,444.4 
		236.3,444.4 236.3,270 202.5,270 	"/>
	<path fill="#FFFFFF" d="M444.1,269.9L270.7,270v0h0v174.4h173.4v-33.9H331.8l112.5-93.7V270h-0.1V269.9z M304.5,391.7V304h0v-0.7
		h104L304.5,391.7z"/>
	<polygon fill="#FFFFFF" points="302.8,161.4 302.8,97.3 409.6,97.3 409.6,118.9 443.9,118.9 443.9,63.4 268.9,63.4 268.9,237.1 
		302.8,237.1 302.8,194.3 443.3,194.3 443.3,161.4 	"/>
	<polygon fill="#FFFFFF" points="235.8,202.9 96,202.9 96,96.3 201.9,96.3 201.9,117.4 236.1,117.4 236.1,62.6 62.1,62.6 
		62.1,236.8 235.8,236.8 	"/>
</g>
</svg>
