<?xml version="1.0" encoding="utf-8"?>
<!-- Generator: Adobe Illustrator 18.1.1, SVG Export Plug-In . SVG Version: 6.00 Build 0)  -->
<!DOCTYPE svg PUBLIC "-//W3C//DTD SVG 1.1//EN" "http://www.w3.org/Graphics/SVG/1.1/DTD/svg11.dtd">
<svg version="1.1" id="Layer_1" xmlns="http://www.w3.org/2000/svg" xmlns:xlink="http://www.w3.org/1999/xlink" x="0px" y="0px"
	 viewBox="266.6 376.1 60 40" enable-background="new 266.6 376.1 60 40" xml:space="preserve">
<g>
	<path fill="#F3F4F4" d="M326.6,411.1c0,2.8-2.2,5-5,5h-50c-2.8,0-5-2.2-5-5v-30c0-2.8,2.2-5,5-5h50c2.8,0,5,2.2,5,5V411.1z"/>
	<path fill="#FFFFFF" d="M296.6,376.1"/>
	<g>
		<path fill="#F8F8F9" d="M321.6,377.1c2.2,0,4,1.8,4,4v30c0,2.2-1.8,4-4,4h-50c-2.2,0-4-1.8-4-4v-30c0-2.2,1.8-4,4-4H321.6
			 M321.6,376.1h-50c-2.8,0-5,2.2-5,5v30c0,2.8,2.2,5,5,5h50c2.8,0,5-2.2,5-5v-30C326.6,378.3,324.3,376.1,321.6,376.1L321.6,376.1z
			"/>
	</g>
	<g>
		<rect x="287.2" y="397.5" width="4.2" height="6.9"/>
		<circle cx="289.3" cy="394.1" r="2.4"/>
		<g>
			<g>
				<path d="M299.3,384.7h-15v22.7h15v0c3.3,0,5.9-0.9,7.7-2.4c2.2-1.9,3.4-4.9,3.4-8.9c0-1.9-0.3-3.6-0.9-5.1
					c-0.6-1.4-1.4-2.6-2.5-3.6C305.1,385.7,302.4,384.8,299.3,384.7C299.3,384.8,299.3,384.7,299.3,384.7z M299,386.3
					c2.9,0,5.3,0.8,7,2.3c1.9,1.7,2.8,4.2,2.8,7.6c0,6.6-3.2,9.8-9.8,9.8c-0.5,0-11.8,0-13.2,0c0-1.3,0-18.3,0-19.7
					C287.1,386.3,298.5,386.3,299,386.3z"/>
			</g>
		</g>
		<g>
			<g>
				<path fill="#CD0067" d="M298.6,404.4h-5.3v-16.4h5.3h-0.2c4.4,0,9.1,1.7,9.1,8.2c0,6.8-4.7,8.2-9.1,8.2H298.6z"/>
			</g>
		</g>
		<g>
			<g>
				<path fill="#FFFFFF" d="M292.4,392.3h1.5c0.3,0,0.6,0,0.7,0.1c0.2,0.1,0.4,0.2,0.6,0.4c0.2,0.2,0.3,0.4,0.4,0.6
					c0.1,0.3,0.1,0.6,0.1,0.9c0,0.3,0,0.6-0.1,0.8c-0.1,0.3-0.2,0.5-0.4,0.7c-0.1,0.1-0.3,0.2-0.6,0.3c-0.2,0.1-0.4,0.1-0.7,0.1
					h-1.5V392.3z M293.1,393v2.6h0.6c0.2,0,0.4,0,0.5,0c0.1,0,0.2-0.1,0.3-0.2c0.1-0.1,0.2-0.2,0.2-0.4c0.1-0.2,0.1-0.4,0.1-0.7
					c0-0.3,0-0.5-0.1-0.7c-0.1-0.2-0.1-0.3-0.2-0.4c-0.1-0.1-0.2-0.2-0.4-0.2c-0.1,0-0.3,0-0.7,0H293.1z"/>
				<path fill="#FFFFFF" d="M292.2,392.2v4.2h1.6c0.3,0,0.6,0,0.7-0.1c0.2-0.1,0.5-0.2,0.6-0.3c0.2-0.2,0.3-0.4,0.4-0.7
					c0.1-0.2,0.1-0.5,0.1-0.9c0-0.4,0-0.7-0.1-1c-0.1-0.3-0.2-0.5-0.4-0.7c-0.2-0.2-0.4-0.3-0.6-0.4c-0.2-0.1-0.4-0.1-0.8-0.1H292.2
					z M293.8,392.4c0.3,0,0.6,0,0.7,0.1c0.2,0.1,0.4,0.2,0.5,0.3c0.2,0.2,0.3,0.4,0.4,0.6c0.1,0.2,0.1,0.5,0.1,0.9
					c0,0.3,0,0.6-0.1,0.8c-0.1,0.3-0.2,0.5-0.4,0.7c-0.1,0.1-0.3,0.2-0.5,0.3c-0.2,0.1-0.4,0.1-0.7,0.1c0,0-1.2,0-1.4,0
					c0-0.2,0-3.5,0-3.7C292.6,392.4,293.8,392.4,293.8,392.4z"/>
				<path fill="#FFFFFF" d="M293,392.9v2.8h0.7c0.2,0,0.4,0,0.5,0c0.1,0,0.3-0.1,0.4-0.2c0.1-0.1,0.2-0.2,0.2-0.4
					c0.1-0.2,0.1-0.4,0.1-0.8c0-0.3,0-0.6-0.1-0.7c-0.1-0.2-0.1-0.3-0.3-0.4c-0.1-0.1-0.3-0.2-0.4-0.2c-0.1,0-0.3,0-0.7,0H293z
					 M293.5,393.1c0.4,0,0.6,0,0.6,0c0.1,0,0.2,0.1,0.3,0.2c0.1,0.1,0.1,0.2,0.2,0.3c0,0.2,0.1,0.4,0.1,0.7c0,0.3,0,0.5-0.1,0.7
					c0,0.2-0.1,0.3-0.2,0.3c-0.1,0.1-0.2,0.1-0.3,0.1c-0.1,0-0.2,0-0.5,0c0,0-0.3,0-0.5,0c0-0.2,0-2.2,0-2.4
					C293.4,393.1,293.5,393.1,293.5,393.1z"/>
			</g>
			<g>
				<path fill="#FFFFFF" d="M296.6,396.2v-3.9h2.9v0.7h-2.1v0.9h2v0.7h-2v1.1h2.2v0.7H296.6z"/>
				<path fill="#FFFFFF" d="M296.4,392.2v4.2h3.2v-0.9c0,0-2,0-2.2,0c0-0.2,0-0.7,0-0.8c0.2,0,2,0,2,0v-0.9c0,0-1.8,0-2,0
					c0-0.1,0-0.5,0-0.7c0.2,0,2.1,0,2.1,0v-0.9H296.4z M299.4,392.4c0,0.1,0,0.3,0,0.5c-0.2,0-2.1,0-2.1,0v1.1c0,0,1.8,0,2,0
					c0,0.1,0,0.3,0,0.5c-0.2,0-2,0-2,0v1.3c0,0,2,0,2.2,0c0,0.1,0,0.3,0,0.5c-0.2,0-2.6,0-2.8,0c0-0.2,0-3.5,0-3.7
					C296.9,392.4,299.2,392.4,299.4,392.4z"/>
			</g>
			<g>
				<path fill="#FFFFFF" d="M304,396.2h-0.9l-0.3-0.9h-1.6l-0.3,0.9H300l1.5-3.9h0.8L304,396.2z M302.5,394.7l-0.5-1.5l-0.5,1.5
					H302.5z"/>
				<path fill="#FFFFFF" d="M301.5,392.2l-1.6,4.2h1.1c0,0,0.3-0.8,0.3-0.9c0.1,0,1.3,0,1.4,0c0,0.1,0.3,0.9,0.3,0.9h1.1l-1.7-4.2
					H301.5z M302.3,392.4c0.1,0.1,1.4,3.5,1.5,3.7c-0.2,0-0.5,0-0.6,0c0-0.1-0.3-0.9-0.3-0.9h-1.7c0,0-0.3,0.8-0.3,0.9
					c-0.1,0-0.4,0-0.6,0c0.1-0.3,1.4-3.6,1.4-3.7C301.8,392.4,302.2,392.4,302.3,392.4z"/>
				<path fill="#FFFFFF" d="M301.3,394.8h1.4l-0.7-1.9L301.3,394.8z M302,393.5c0.1,0.3,0.3,0.9,0.4,1c-0.2,0-0.6,0-0.8,0
					C301.7,394.4,301.9,393.9,302,393.5z"/>
			</g>
			<g>
				<path fill="#FFFFFF" d="M304.6,396.2v-3.9h0.8v3.2h2v0.7H304.6z"/>
				<path fill="#FFFFFF" d="M304.5,392.2v4.1h3v-0.9c0,0-1.8,0-2,0c0-0.2,0-3.2,0-3.2H304.5z M305.3,392.5c0,0.2,0,3.2,0,3.2
					s1.8,0,2,0c0,0.1,0,0.3,0,0.5c-0.2,0-2.4,0-2.6,0c0-0.2,0-3.5,0-3.7C304.9,392.5,305.2,392.5,305.3,392.5z"/>
			</g>
		</g>
	</g>
	<path opacity="8.000000e-02" fill="#FFFFFF" enable-background="new    " d="M325.1,377.6c0.9,0.9,1.5,2.2,1.5,3.5v15v15
		c0,1.4-0.6,2.6-1.5,3.5c-0.9,0.9-2.2,1.5-3.5,1.5h-25h-25c-1.4,0-2.6-0.6-3.5-1.5L325.1,377.6z"/>
</g>
</svg>
