<?xml version="1.0" encoding="utf-8"?>
<!-- Generator: Adobe Illustrator 18.1.1, SVG Export Plug-In . SVG Version: 6.00 Build 0)  -->
<!DOCTYPE svg PUBLIC "-//W3C//DTD SVG 1.1//EN" "http://www.w3.org/Graphics/SVG/1.1/DTD/svg11.dtd">
<svg version="1.1" id="Layer_1" xmlns="http://www.w3.org/2000/svg" xmlns:xlink="http://www.w3.org/1999/xlink" x="0px" y="0px"
	 viewBox="423.7 376.1 60 40" enable-background="new 423.7 376.1 60 40" xml:space="preserve">
<g>
	<path fill="#5565AF" d="M483.7,411.1c0,2.8-2.2,5-5,5h-50c-2.8,0-5-2.2-5-5v-30c0-2.8,2.2-5,5-5h50c2.8,0,5,2.2,5,5V411.1z"/>
	<path opacity="4.000000e-02" fill="#FFFFFF" enable-background="new    " d="M482.3,377.6c0.9,0.9,1.5,2.2,1.5,3.5v15v15
		c0,1.4-0.6,2.6-1.5,3.5c-0.9,0.9-2.2,1.5-3.5,1.5h-25h-25c-1.4,0-2.6-0.6-3.5-1.5L482.3,377.6z"/>
	<path fill="#56B1D9" d="M453.7,376.1"/>
	<g>
		<path fill="#EA564B" d="M453.7,389.5c-1.8-2.1-4.5-3.4-7.5-3.4c-5.5,0-10,4.5-10,10c0,5.5,4.5,10,10,10c3,0,5.7-1.3,7.5-3.4
			c-1.6-1.8-2.5-4.1-2.5-6.6S452.2,391.3,453.7,389.5z"/>
		<path fill="#EA564B" d="M453.7,389.5c-1.6,1.8-2.5,4.1-2.5,6.6s0.9,4.8,2.5,6.6c1.6-1.8,2.5-4.1,2.5-6.6S455.3,391.3,453.7,389.5z
			"/>
	</g>
	<path fill="#E9D419" d="M461.2,386.1c-3,0-5.7,1.3-7.5,3.4c-0.4,0.5-0.8,1-1.1,1.6h2.3c0.4,0.6,0.6,1.3,0.9,2h-4
		c-0.2,0.6-0.4,1.3-0.4,2h4.9c0,0.3,0.1,0.7,0.1,1c0,0.3,0,0.7-0.1,1h-4.9c0.1,0.7,0.2,1.4,0.4,2h4.1c-0.2,0.7-0.5,1.4-0.9,2h-2.3
		c0.3,0.6,0.7,1.1,1.1,1.6c1.8,2.1,4.5,3.4,7.5,3.4c5.5,0,10-4.5,10-10C471.2,390.6,466.8,386.1,461.2,386.1z"/>
	<g>
		<path fill="#7684B7" d="M478.7,377.1c2.2,0,4,1.8,4,4v30c0,2.2-1.8,4-4,4h-50c-2.2,0-4-1.8-4-4v-30c0-2.2,1.8-4,4-4H478.7
			 M478.7,376.1h-50c-2.8,0-5,2.2-5,5v30c0,2.8,2.2,5,5,5h50c2.8,0,5-2.2,5-5v-30C483.7,378.3,481.5,376.1,478.7,376.1L478.7,376.1z
			"/>
	</g>
</g>
</svg>
