<?xml version="1.0" encoding="utf-8"?>
<!-- Generator: Adobe Illustrator 18.1.1, SVG Export Plug-In . SVG Version: 6.00 Build 0)  -->
<!DOCTYPE svg PUBLIC "-//W3C//DTD SVG 1.1//EN" "http://www.w3.org/Graphics/SVG/1.1/DTD/svg11.dtd">
<svg version="1.1" id="Layer_1" xmlns="http://www.w3.org/2000/svg" xmlns:xlink="http://www.w3.org/1999/xlink" x="0px" y="0px"
	 viewBox="188 376.1 60 40" enable-background="new 188 376.1 60 40" xml:space="preserve">
<g>
	<path fill="#F3F4F4" d="M248,411.1c0,2.8-2.2,5-5,5h-50c-2.8,0-5-2.2-5-5v-30c0-2.8,2.2-5,5-5h50c2.8,0,5,2.2,5,5V411.1z"/>
	<path fill="#FFFFFF" d="M218,376.1"/>
	<g>
		<path fill="#F8F8F9" d="M243,377.1c2.2,0,4,1.8,4,4v30c0,2.2-1.8,4-4,4h-50c-2.2,0-4-1.8-4-4v-30c0-2.2,1.8-4,4-4H243 M243,376.1
			h-50c-2.8,0-5,2.2-5,5v30c0,2.8,2.2,5,5,5h50c2.8,0,5-2.2,5-5v-30C248,378.3,245.7,376.1,243,376.1L243,376.1z"/>
	</g>
	<g>
		<path id="path14519" fill="#002F86" d="M220.5,403.1h-1.8c-0.2,0-0.3,0.1-0.4,0.2l-2.5,3.7l-1.1-3.6c-0.1-0.2-0.3-0.4-0.5-0.4
			h-1.8c-0.2,0-0.4,0.2-0.3,0.4l2,6l-1.9,2.7c-0.1,0.2,0,0.5,0.3,0.5h1.8c0.2,0,0.3-0.1,0.4-0.2l6.1-8.9
			C220.9,403.4,220.7,403.1,220.5,403.1 M208.2,406.6c-0.2,1-1,1.8-2.1,1.8c-0.5,0-1-0.2-1.2-0.5c-0.3-0.3-0.4-0.8-0.3-1.3
			c0.2-1,1-1.8,2.1-1.8c0.5,0,0.9,0.2,1.2,0.5C208.1,405.7,208.2,406.1,208.2,406.6 M210.7,403.1h-1.8c-0.2,0-0.3,0.1-0.3,0.3
			l-0.1,0.5l-0.1-0.2c-0.4-0.6-1.3-0.8-2.2-0.8c-2,0-3.8,1.5-4.1,3.7c-0.2,1.1,0.1,2.1,0.7,2.8c0.6,0.7,1.4,0.9,2.3,0.9
			c1.6,0,2.5-1,2.5-1l-0.1,0.5c0,0.2,0.1,0.4,0.3,0.4h1.7c0.3,0,0.5-0.2,0.5-0.4l1-6.3C211.1,403.2,210.9,403.1,210.7,403.1
			 M199.7,403.1c-0.2,1.4-1.3,1.4-2.3,1.4h-0.6l0.4-2.6c0-0.2,0.2-0.3,0.3-0.3h0.3c0.7,0,1.3,0,1.7,0.4
			C199.7,402.3,199.8,402.6,199.7,403.1 M199.3,399.5h-3.8c-0.3,0-0.5,0.2-0.5,0.4l-1.5,9.8c0,0.2,0.1,0.4,0.3,0.4h1.8
			c0.3,0,0.5-0.2,0.5-0.4l0.4-2.7c0-0.3,0.3-0.4,0.5-0.4h1.2c2.5,0,4-1.2,4.4-3.6c0.2-1.1,0-1.9-0.5-2.5
			C201.5,399.9,200.5,399.5,199.3,399.5"/>
		<path id="path14523" fill="#009CDE" d="M240.2,399.8l-1.6,10c0,0.2,0.1,0.4,0.3,0.4h1.6c0.3,0,0.5-0.2,0.5-0.4l1.6-9.8
			c0-0.2-0.1-0.4-0.3-0.4h-1.8C240.4,399.5,240.2,399.6,240.2,399.8 M235.5,406.6c-0.2,1-1,1.8-2.1,1.8c-0.5,0-1-0.2-1.2-0.5
			c-0.3-0.3-0.4-0.8-0.3-1.3c0.2-1,1-1.8,2.1-1.8c0.5,0,0.9,0.2,1.2,0.5C235.5,405.7,235.6,406.1,235.5,406.6 M238,403.1h-1.8
			c-0.2,0-0.3,0.1-0.3,0.3l-0.1,0.5l-0.1-0.2c-0.4-0.6-1.3-0.8-2.2-0.8c-2,0-3.8,1.5-4.1,3.7c-0.2,1.1,0.1,2.1,0.7,2.8
			c0.6,0.7,1.4,0.9,2.3,0.9c1.6,0,2.5-1,2.5-1l-0.1,0.5c0,0.2,0.1,0.4,0.3,0.4h1.7c0.3,0,0.5-0.2,0.5-0.4l1-6.3
			C238.4,403.2,238.2,403.1,238,403.1 M227,403.1c-0.2,1.4-1.3,1.4-2.3,1.4h-0.6l0.4-2.6c0-0.2,0.2-0.3,0.3-0.3h0.3
			c0.7,0,1.3,0,1.7,0.4C227,402.3,227.1,402.6,227,403.1 M226.6,399.5h-3.8c-0.3,0-0.5,0.2-0.5,0.4l-1.5,9.8c0,0.2,0.1,0.4,0.3,0.4
			h2c0.2,0,0.3-0.1,0.4-0.3l0.4-2.8c0-0.3,0.3-0.4,0.5-0.4h1.2c2.5,0,4-1.2,4.4-3.6c0.2-1.1,0-1.9-0.5-2.5
			C228.8,399.9,227.9,399.5,226.6,399.5"/>
	</g>
	<g>
		<path id="path14499" fill="#003087" d="M222.9,384.7c-0.8-0.9-2.1-1.2-3.9-1.2h-5.1c-0.4,0-0.7,0.3-0.7,0.6l-2.1,13.6
			c0,0.3,0.2,0.5,0.4,0.5h3.2l0.8-5l0,0.2c0.1-0.4,0.4-0.6,0.7-0.6h1.5c3,0,5.3-1.2,5.9-4.7c0-0.1,0-0.2,0.1-0.3c-0.1,0-0.1,0,0,0
			C223.8,386.3,223.6,385.5,222.9,384.7"/>
		<path id="path14527" fill="#003087" d="M222.9,384.7c-0.8-0.9-2.1-1.2-3.9-1.2h-5.1c-0.4,0-0.7,0.3-0.7,0.6l-2.1,13.6
			c0,0.3,0.2,0.5,0.4,0.5h3.2l0.8-5l0,0.2c0.1-0.4,0.4-0.6,0.7-0.6h1.5c3,0,5.3-1.2,5.9-4.7c0-0.1,0-0.2,0.1-0.3c-0.1,0-0.1,0,0,0
			C223.8,386.3,223.6,385.5,222.9,384.7"/>
		<path id="path14531" fill="#002F86" d="M216.2,387.6c0-0.2,0.2-0.4,0.4-0.5c0.1,0,0.2-0.1,0.3-0.1h4c0.5,0,0.9,0,1.3,0.1
			c0.1,0,0.2,0,0.3,0.1c0.1,0,0.2,0.1,0.3,0.1c0.1,0,0.1,0,0.2,0c0.2,0.1,0.4,0.1,0.6,0.2c0.2-1.3,0-2.2-0.7-3
			c-0.8-0.9-2.1-1.2-3.9-1.2h-5.1c-0.4,0-0.7,0.3-0.7,0.6l-2.1,13.6c0,0.3,0.2,0.5,0.4,0.5h3.2l0.8-5L216.2,387.6L216.2,387.6z"/>
		<path id="path14535" fill="#009CDE" d="M223.6,387.6L223.6,387.6c0,0.1,0,0.2-0.1,0.3c-0.7,3.5-3,4.7-5.9,4.7h-1.5
			c-0.4,0-0.7,0.3-0.7,0.6l-0.8,4.9l-0.2,1.4c0,0.2,0.1,0.4,0.4,0.4h2.7c0.3,0,0.6-0.2,0.6-0.5l0-0.1l0.5-3.2l0-0.2
			c0-0.3,0.3-0.5,0.6-0.5h0.4c2.6,0,4.6-1.1,5.2-4.1c0.2-1.3,0.1-2.3-0.5-3.1C224.1,388,223.9,387.8,223.6,387.6"/>
		<path id="path14539" fill="#012069" d="M222.9,387.4c-0.1,0-0.2-0.1-0.3-0.1c-0.1,0-0.2,0-0.3-0.1c-0.4-0.1-0.9-0.1-1.3-0.1h-4
			c-0.1,0-0.2,0-0.3,0.1c-0.2,0.1-0.3,0.3-0.4,0.5l-0.9,5.4l0,0.2c0.1-0.4,0.4-0.6,0.7-0.6h1.5c3,0,5.3-1.2,5.9-4.7
			c0-0.1,0-0.2,0.1-0.3c-0.2-0.1-0.4-0.2-0.6-0.2C223,387.4,222.9,387.4,222.9,387.4"/>
	</g>
	<path opacity="8.000000e-02" fill="#FFFFFF" enable-background="new    " d="M246.5,377.6c0.9,0.9,1.5,2.2,1.5,3.5v15v15
		c0,1.4-0.6,2.6-1.5,3.5c-0.9,0.9-2.2,1.5-3.5,1.5h-25h-25c-1.4,0-2.6-0.6-3.5-1.5L246.5,377.6z"/>
</g>
</svg>
