<?xml version="1.0" encoding="utf-8"?>
<!-- Generator: Adobe Illustrator 18.1.1, SVG Export Plug-In . SVG Version: 6.00 Build 0)  -->
<!DOCTYPE svg PUBLIC "-//W3C//DTD SVG 1.1//EN" "http://www.w3.org/Graphics/SVG/1.1/DTD/svg11.dtd">
<svg version="1.1" id="Layer_1" xmlns="http://www.w3.org/2000/svg" xmlns:xlink="http://www.w3.org/1999/xlink" x="0px" y="0px"
	 viewBox="502.3 376.1 60 40" enable-background="new 502.3 376.1 60 40" xml:space="preserve">
<g>
	<g>
		<path fill="#5EC1EC" d="M562.3,411.1c0,2.8-2.2,5-5,5h-50c-2.8,0-5-2.2-5-5v-30c0-2.8,2.2-5,5-5h50c2.8,0,5,2.2,5,5V411.1z"/>
		<path fill="#5BBBE6" d="M560.8,377.6c0.9,0.9,1.5,2.2,1.5,3.5v15v15c0,1.4-0.6,2.6-1.5,3.5s-2.2,1.5-3.5,1.5h-25h-25
			c-1.4,0-2.6-0.6-3.5-1.5L560.8,377.6z"/>
		<g>
			<path fill="#FFFFFF" d="M519.9,401l-0.5-1.7h-3l-0.5,1.7h-2.8l3-9.3h3.3l3.1,9.3H519.9z M518.9,397.2l-0.4-1.5
				c-0.1-0.3-0.2-0.8-0.3-1.3c-0.1-0.5-0.2-0.9-0.3-1.2c0,0.2-0.1,0.6-0.2,1.1s-0.4,1.5-0.7,2.9L518.9,397.2L518.9,397.2z"/>
			<path fill="#FFFFFF" d="M527.7,401l-1.9-6.7h-0.1c0.1,1.1,0.1,2,0.1,2.7v4h-2.2v-9.3h3.3l1.9,6.6h0.1l1.9-6.6h3.3v9.3h-2.3v-4.1
				c0-0.2,0-0.4,0-0.7c0-0.3,0-0.9,0.1-1.9h-0.1L530,401L527.7,401L527.7,401z"/>
			<path fill="#FFFFFF" d="M541.4,401h-5.5v-9.3h5.5v2h-3v1.5h2.8v2h-2.8v1.8h3V401z"/>
			<path fill="#FFFFFF" d="M551.4,401h-2.9l-1.8-2.9l-1.8,2.9h-2.8l3.1-4.7l-2.9-4.5h2.8l1.7,2.9l1.6-2.9h2.9l-2.9,4.7L551.4,401z"
				/>
		</g>
		<g>
			<path fill="#FFFFFF" d="M519.9,401l-0.5-1.7h-3l-0.5,1.7h-2.8l3-9.3h3.3l3.1,9.3H519.9z M518.9,397.2l-0.4-1.5
				c-0.1-0.3-0.2-0.8-0.3-1.3c-0.1-0.5-0.2-0.9-0.3-1.2c0,0.2-0.1,0.6-0.2,1.1s-0.4,1.5-0.7,2.9L518.9,397.2L518.9,397.2z"/>
			<path fill="#FFFFFF" d="M527.7,401l-1.9-6.7h-0.1c0.1,1.1,0.1,2,0.1,2.7v4h-2.2v-9.3h3.3l1.9,6.6h0.1l1.9-6.6h3.3v9.3h-2.3v-4.1
				c0-0.2,0-0.4,0-0.7c0-0.3,0-0.9,0.1-1.9h-0.1L530,401L527.7,401L527.7,401z"/>
			<path fill="#FFFFFF" d="M541.4,401h-5.5v-9.3h5.5v2h-3v1.5h2.8v2h-2.8v1.8h3V401z"/>
			<path fill="#FFFFFF" d="M551.4,401h-2.9l-1.8-2.9l-1.8,2.9h-2.8l3.1-4.7l-2.9-4.5h2.8l1.7,2.9l1.6-2.9h2.9l-2.9,4.7L551.4,401z"
				/>
		</g>
		<path fill="#56B1D9" d="M532.3,376.1"/>
	</g>
	<g>
		<path fill="#9BCEE0" d="M557.3,377.1c2.2,0,4,1.8,4,4v30c0,2.2-1.8,4-4,4h-50c-2.2,0-4-1.8-4-4v-30c0-2.2,1.8-4,4-4H557.3
			 M557.3,376.1h-50c-2.8,0-5,2.2-5,5v30c0,2.8,2.2,5,5,5h50c2.8,0,5-2.2,5-5v-30C562.3,378.3,560.1,376.1,557.3,376.1L557.3,376.1z
			"/>
	</g>
</g>
</svg>
